<svg width="14" height="14" viewBox="0 0 14 14" fill="none" xmlns="http://www.w3.org/2000/svg">
<path d="M13.4409 2.56078L12.3159 0.310781C12.2692 0.217328 12.1973 0.138749 12.1084 0.0838559C12.0195 0.0289626 11.917 -7.46721e-05 11.8125 1.44212e-07H1.6875C1.583 -7.46721e-05 1.48054 0.0289626 1.39162 0.0838559C1.3027 0.138749 1.23083 0.217328 1.18406 0.310781L0.0590625 2.56078C0.0203377 2.63905 0.000129468 2.72518 0 2.8125V12.375C0 12.6734 0.118526 12.9595 0.329505 13.1705C0.540483 13.3815 0.826631 13.5 1.125 13.5H12.375C12.6734 13.5 12.9595 13.3815 13.1705 13.1705C13.3815 12.9595 13.5 12.6734 13.5 12.375V2.8125C13.4999 2.72518 13.4797 2.63905 13.4409 2.56078ZM2.03484 1.125H11.4652L12.0277 2.25H1.47234L2.03484 1.125ZM12.375 12.375H1.125V3.375H12.375V12.375ZM9.39797 8.03953C9.45027 8.09177 9.49176 8.15381 9.52007 8.2221C9.54837 8.29038 9.56294 8.36358 9.56294 8.4375C9.56294 8.51142 9.54837 8.58462 9.52007 8.6529C9.49176 8.72119 9.45027 8.78323 9.39797 8.83547L7.14797 11.0855C7.09573 11.1378 7.03369 11.1793 6.9654 11.2076C6.89712 11.2359 6.82392 11.2504 6.75 11.2504C6.67608 11.2504 6.60288 11.2359 6.5346 11.2076C6.46631 11.1793 6.40427 11.1378 6.35203 11.0855L4.10203 8.83547C3.99648 8.72992 3.93719 8.58677 3.93719 8.4375C3.93719 8.28823 3.99648 8.14508 4.10203 8.03953C4.20758 7.93398 4.35073 7.87469 4.5 7.87469C4.64927 7.87469 4.79242 7.93398 4.89797 8.03953L6.1875 9.32977V5.0625C6.1875 4.91332 6.24676 4.77024 6.35225 4.66475C6.45774 4.55926 6.60082 4.5 6.75 4.5C6.89918 4.5 7.04226 4.55926 7.14775 4.66475C7.25324 4.77024 7.3125 4.91332 7.3125 5.0625V9.32977L8.60203 8.03953C8.65427 7.98723 8.71631 7.94574 8.7846 7.91743C8.85288 7.88913 8.92608 7.87456 9 7.87456C9.07392 7.87456 9.14712 7.88913 9.2154 7.91743C9.28369 7.94574 9.34573 7.98723 9.39797 8.03953Z" fill="#2F2F2F"/>
</svg>
