<svg width="28" height="28" viewBox="0 0 28 28" fill="none" xmlns="http://www.w3.org/2000/svg">
<path d="M21.1517 14.0039L22.6217 12.5339C23.135 12.0206 23.7883 11.7406 24.5 11.6706V10.5039L17.5 3.50391H5.83333C4.53833 3.50391 3.5 4.54224 3.5 5.83724V22.1706C3.5 23.4539 4.53833 24.5039 5.83333 24.5039H12.8333V22.3222L12.985 22.1706H5.83333V5.83724H14V14.0039H21.1517ZM16.3333 5.25391L22.75 11.6706H16.3333V5.25391ZM22.3183 16.1389L24.6983 18.5189L17.5467 25.6706H15.1667V23.2906L22.3183 16.1389ZM26.6583 16.5589L25.515 17.7022L23.135 15.3222L24.2783 14.1789C24.5 13.9456 24.885 13.9456 25.1183 14.1789L26.6583 15.7189C26.8917 15.9522 26.8917 16.3372 26.6583 16.5589Z" fill="#2F6D8A"/>
</svg>
