<svg width="61" height="50" viewBox="0 0 61 50" fill="none" xmlns="http://www.w3.org/2000/svg">
<path d="M45.6839 12.856C44.8426 12.691 44.1538 12.1734 43.798 11.4333C39.8584 3.25436 30.7262 -1.31893 21.5991 0.336356C13.2828 1.83662 6.76338 8.36775 5.37308 16.5917C4.96133 19.0196 4.99183 21.45 5.45696 23.8179C5.60946 24.5906 5.27142 25.4507 4.57754 26.0708C1.66733 28.6738 0 32.3819 0 36.2476C0 43.8289 6.27029 50 13.9792 50H41.9375C52.4498 50 61 41.5885 61 31.2467C61 22.3327 54.5594 14.5963 45.6839 12.856ZM38.4325 29.2639C37.9369 29.7515 37.2863 29.9965 36.6356 29.9965C35.9849 29.9965 35.3343 29.7515 34.8386 29.2639L30.5 24.9956V37.4978C30.5 38.8806 29.3613 39.9983 27.9583 39.9983C26.5553 39.9983 25.4167 38.8806 25.4167 37.4978V24.9956L21.078 29.2639C20.0843 30.2416 18.4779 30.2416 17.4841 29.2639C16.4903 28.2862 16.4903 26.7059 17.4841 25.7283L24.3644 18.9596C25.3455 17.9944 26.6341 17.5093 27.9228 17.5018L27.9583 17.4943L27.9939 17.5018C29.2851 17.5093 30.5712 17.9944 31.5522 18.9596L38.4325 25.7283C39.4263 26.7059 39.4263 28.2862 38.4325 29.2639Z" fill="#F9CC17"/>
</svg>
